<?xml version="1.0" encoding="utf-8"?>
<!-- Generator: Adobe Illustrator 26.0.0, SVG Export Plug-In . SVG Version: 6.00 Build 0)  -->
<svg version="1.1" id="Layer_1" xmlns="http://www.w3.org/2000/svg" xmlns:xlink="http://www.w3.org/1999/xlink" x="0px" y="0px"
	 viewBox="0 0 1080 1080" style="enable-background:new 0 0 1080 1080;" xml:space="preserve">
<style type="text/css">
	.st0{fill:#45AC4D;}
</style>
<g>
	<path class="st0" d="M558.05,803.44c-5.03,2.93-9.84,5.75-15.2,8.88c-1.12-1.75-2.25-3.36-3.24-5.07
		c-10.06-17.39-20.09-34.79-30.15-52.18c-10.24-17.72-10.25-17.71-10.05-37.12c-17.96,0-35.91,0-54.79,0
		c1.93,3.24,3.54,5.91,5.13,8.6c6.28,10.58,9.46,21.99,9.4,34.32c-0.07,15.39-0.02,30.79-0.02,46.6c-5.97,0-11.67,0-18.04,0
		c0-9.55-0.73-19.13,0.15-28.57c2.04-21.79-3.16-41.24-16.34-58.71c-3.15-4.17-5.32-9.07-8.25-13.43c-3.23-4.81-2.98-9.2-0.08-14.14
		c12.82-21.87,25.37-43.88,38.14-65.78c2.88-4.94,4.39-10.04,2.82-15.6c-2-7.1-6.65-11.74-14.05-13c-7.77-1.32-14.22,1.2-18.42,7.99
		c-4.64,7.5-8.91,15.23-13.32,22.87c-13.62,23.56-27.23,47.11-41.29,71.44c-5.16-2.97-10.1-5.81-14.9-8.57
		c0-0.78-0.15-1.26,0.02-1.47c6.86-8.66,8.77-18,4.93-28.65c-1.15-3.2-0.6-7.07-0.6-10.63c-0.03-40.03-0.02-80.06-0.02-120.09
		c0-1.95,0-3.91,0-5.86c-0.3-0.05-0.61-0.11-0.91-0.16c-0.81,1.6-1.66,3.18-2.41,4.81c-11.08,24.03-22.06,48.1-33.25,72.08
		c-5.82,12.48-8.62,25.46-8.59,39.24c0.13,53.19,0.05,106.37,0.05,159.56c0,2.21,0,4.42,0,6.87c-6.12,0-11.69,0-18.04,0
		c0-2.01,0-3.99,0-5.98c0-53.75,0.05-107.5-0.03-161.25c-0.03-15.86,3.21-30.89,9.88-45.27c13.1-28.26,25.85-56.69,39.3-84.78
		c2.55-5.32,7.79-9.31,11.44-14.17c1.37-1.83,2.47-4.41,2.47-6.64c0.14-53,0.01-106,0.14-158.99c0.08-30.41,19.78-55.35,49.01-62.15
		c5.25-1.22,10.78-1.66,16.19-1.67c58.83-0.11,117.67-0.13,176.5-0.05c37.64,0.05,64.98,27.46,65.01,65.22
		c0.06,102.8,0.05,205.6-0.07,308.4c-0.01,4.5,1.24,6.52,5.49,8.66c6.18,3.12,11.45,8.07,17.87,12.8c7.41-5.29,16.9-8.56,27.69-6.68
		c10.77,1.88,18.91,7.77,25.01,16.53c17.64-10.5,32.17-10.58,45.34-0.41c8.34,6.44,13.65,15.06,13.77,25.45
		c0.42,36.81,0.16,73.63,0.16,110.86c-5.86,0-11.56,0-17.94,0c0-2.01,0-4.01,0-6.01c0-33.64,0.07-67.28-0.04-100.92
		c-0.04-13.69-12.61-22.63-24.69-17.62c-7.27,3.02-11.12,8.75-11.33,16.66c-0.15,5.63,0.04,11.28-0.06,16.91
		c-0.12,6.2-3.68,10.13-8.97,10.15c-5.29,0.02-8.93-3.92-9.02-10.09c-0.11-7.52-0.02-15.03-0.03-22.55
		c-0.01-13.06-6.95-21.35-17.91-21.43c-11.06-0.08-18.16,8.18-18.17,21.14c-0.01,7.52,0.06,15.04-0.03,22.55
		c-0.07,6.26-3.5,10.22-8.74,10.38c-5.46,0.17-9.2-3.93-9.25-10.42c-0.08-11.09,0.03-22.18-0.04-33.26
		c-0.07-11.38-7.77-19.51-18.23-19.4c-10.27,0.11-17.75,8.11-17.82,19.21c-0.07,10.9,0.02,21.8-0.03,32.7
		c-0.03,7.06-3.47,11.22-9.09,11.17c-5.61-0.05-8.93-4.17-8.93-11.32c-0.02-46.8,0.02-93.59-0.03-140.39
		c-0.02-14.2-12.21-23.23-24.6-18.39c-7.15,2.79-11.42,9.26-11.45,17.75c-0.06,18.79-0.02,37.59-0.02,56.38
		c0,36.27,0,72.54,0,108.82c0,1.32-0.03,2.63,0,3.95c0.14,4.88-1.84,8.55-6.62,9.92c-4.83,1.38-8.37-0.88-10.79-5.06
		c-5.93-10.23-11.73-20.55-17.82-30.68c-3.98-6.62-11.24-9.74-18.28-8.4c-7.88,1.5-14.12,7.08-14.62,15
		c-0.28,4.55,1.07,9.77,3.3,13.8c11.21,20.19,22.95,40.07,34.5,60.07C556.05,799.72,556.91,801.35,558.05,803.44z M433.7,699.28
		c1.65,0.21,2.35,0.37,3.05,0.37c23.87,0.02,47.74,0.07,71.61-0.08c2.04-0.01,4.3-1.04,6.06-2.2c12.65-8.39,27.87-8.77,40.24-0.25
		c4.16,2.86,8.09,2.88,12.76,2.02c0-2.37,0-4.43,0-6.48c0-39.65-0.09-79.31,0.04-118.96c0.07-20.46,15.99-36.37,35.96-36.4
		c20.02-0.03,35.96,15.8,36.13,36.24c0.17,21.42,0.04,42.85,0.05,64.27c0,3.9,0,7.79,0,11.81c9.02-2.66,9.02-2.66,9.02-11.12
		c0-102.05,0.02-204.09-0.01-306.14c-0.01-28.58-19.15-47.64-47.79-47.65c-58.27-0.03-116.54-0.02-174.81,0
		c-29.02,0.01-48.06,18.99-48.06,47.94c-0.02,103.74-0.01,207.48-0.01,311.22c0,1.77,0,3.54,0,5.32c2.18-1.64,3.35-3.47,4.44-5.35
		c9.04-15.59,17.86-31.31,27.16-46.75c7.88-13.08,22.52-19.39,37.23-16.75c14.23,2.55,25.77,13.74,28.78,28.3
		c2.03,9.83-0.23,18.91-5.28,27.54C458.12,656.89,446.18,677.71,433.7,699.28z"/>
	<path class="st0" d="M338.84,395.55c-4.26,4.32-8.19,8.31-12.85,13.03c-3.16-3.96-6.2-7.77-9.23-11.58
		c-0.56,0.33-1.12,0.66-1.68,0.99c0,34.17,0,68.33,0,102.86c-6.36,0-12.06,0-18.16,0c0-34.25,0-68.35,0-103.94
		c-4.46,4.23-8,7.58-11.72,11.1c-4.17-4.29-8.15-8.39-12.31-12.67c8.91-8.98,17.75-18.16,26.91-27.01
		c3.78-3.65,8.45-3.44,12.18,0.19C320.98,377.28,329.7,386.32,338.84,395.55z"/>
	<path class="st0" d="M753.91,395.62c-4.22,4.25-8.17,8.23-12.87,12.95c-3.1-3.99-6.09-7.83-9.08-11.68
		c-0.6,0.37-1.2,0.74-1.81,1.12c0,34.15,0,68.29,0,102.82c-6.37,0-12.06,0-18.16,0c0-34.2,0-68.31,0-104.01
		c-4.49,4.3-8,7.66-11.71,11.21c-4.15-4.34-8.1-8.48-12.26-12.84c8.77-8.83,17.62-17.99,26.79-26.84c3.77-3.64,8.44-3.5,12.18,0.14
		C735.97,377.26,744.69,386.3,753.91,395.62z"/>
	<path class="st0" d="M297.13,519.51c5.97,0,11.53,0,17.36,0c0,5.8,0,11.35,0,17.34c-5.59,0-11.27,0-17.36,0
		C297.13,531.3,297.13,525.62,297.13,519.51z"/>
	<path class="st0" d="M712.13,519.36c5.92,0,11.34,0,17.22,0c0,5.72,0,11.41,0,17.52c-5.48,0-11.17,0-17.22,0
		C712.13,531.24,712.13,525.56,712.13,519.36z"/>
	<path class="st0" d="M712.05,555.57c5.89,0,11.44,0,17.38,0c0,5.77,0,11.45,0,17.47c-5.73,0-11.41,0-17.38,0
		C712.05,567.31,712.05,561.76,712.05,555.57z"/>
	<path class="st0" d="M603.49,464.87c-0.04,50.01-40.47,90.52-90.25,90.42c-49.95-0.09-90.18-40.46-90.18-90.5
		c0.01-49.68,40.7-89.96,90.8-89.88C562.98,375,603.53,415.71,603.49,464.87z M513.6,537.29c39.27-0.06,71.79-32.56,71.85-71.81
		c0.06-40.09-32.37-72.65-72.24-72.51c-40.07,0.14-72.22,32.52-72.11,72.62C441.22,505.16,473.76,537.35,513.6,537.29z"/>
	<path class="st0" d="M513.22,681.61c-6.2,0-12.4,0.14-18.59-0.03c-14.94-0.42-26.59-12.55-26.44-27.36
		c0.15-14.52,11.83-26.4,26.56-26.66c12.39-0.22,24.79-0.23,37.18,0.01c14.72,0.28,26.35,12.23,26.44,26.77
		c0.1,14.8-11.59,26.85-26.56,27.25C525.61,681.75,519.41,681.61,513.22,681.61z M513.27,645.56c-5.83,0-11.65-0.12-17.48,0.04
		c-5.78,0.16-9.54,3.84-9.54,8.97c0,5.11,3.78,8.9,9.54,8.97c11.65,0.15,23.3,0.15,34.95,0c5.76-0.07,9.55-3.86,9.55-8.97
		c0-5.12-3.78-8.81-9.55-8.97C524.93,645.43,519.1,645.56,513.27,645.56z"/>
	<path class="st0" d="M477.54,302.85c24.02,0,47.47,0,71.37,0c0,5.77,0,11.46,0,17.56c-23.58,0-47.3,0-71.37,0
		C477.54,314.71,477.54,309.02,477.54,302.85z"/>
	<path class="st0" d="M458.71,320.58c-5.84,0-11.39,0-17.27,0c0-5.89,0-11.57,0-17.54c5.73,0,11.28,0,17.27,0
		C458.71,308.64,458.71,314.33,458.71,320.58z"/>
	<path class="st0" d="M475.96,483.41c7.24,0,12.84,0,18.93,0c1.38,7.45,6.66,9.31,13.65,8.83c4.49-0.31,9.02,0.08,13.52-0.11
		c5.4-0.23,9.08-3.86,9.21-8.74c0.13-5.12-3.64-9-9.32-9.19c-5.44-0.19-10.9-0.02-16.35-0.06c-15.39-0.11-27.29-10.58-28.35-24.91
		c-1.09-14.79,9.03-26.78,24.61-29.14c0.56-0.08,1.11-0.16,2.16-0.3c0.13-2.65,0.26-5.38,0.41-8.44c5.88,0,11.59,0,17.71,0
		c0,2.72,0,5.28,0,8.31c9.16,0.94,17.22,4.05,22.07,11.85c2.74,4.41,4.09,9.69,6.36,15.33c-7.24,0-12.83,0-18.9,0
		c-1.4-7.45-6.67-9.31-13.66-8.83c-4.49,0.31-9.02-0.08-13.52,0.11c-5.42,0.23-9.08,3.83-9.21,8.73c-0.14,5.11,3.63,9,9.31,9.2
		c5.44,0.19,10.9,0.03,16.35,0.06c15.42,0.1,27.27,10.52,28.36,24.89c1.09,14.55-8.84,26.58-24.04,29.09
		c-0.74,0.12-1.49,0.18-2.72,0.33c-0.13,2.69-0.26,5.41-0.41,8.48c-5.87,0-11.59,0-17.7,0c0-2.71,0-5.27,0-8.35
		c-9.19-0.85-17.18-4.07-22.07-11.82C479.58,494.35,478.25,489.06,475.96,483.41z"/>
</g>
</svg>
